<svg width="350" height="54" viewBox="0 0 350 54" fill="none" xmlns="http://www.w3.org/2000/svg">
<line x1="0.00488281" y1="42" x2="350.005" y2="42" stroke="#0867B8" stroke-width="2"/>
<line y1="52.0205" x2="250" y2="52.0205" stroke="#0867B8" stroke-width="2"/>
<path d="M19.3649 11.152H12.1009V30H7.71688V11.152H0.452883V7.28H19.3649V11.152ZM30.1596 16.944C28.8583 16.944 27.6956 17.2 26.6716 17.712C25.6476 18.2027 24.9116 18.9173 24.4636 19.856V30H20.1756V13.232H24.1116V16.816C24.709 15.664 25.4663 14.7573 26.3836 14.096C27.301 13.4347 28.2716 13.072 29.2956 13.008C29.5303 13.008 29.7116 13.008 29.8396 13.008C29.9676 13.008 30.0743 13.0187 30.1596 13.04V16.944ZM31.3049 25.04C31.3049 23.952 31.6035 23.0027 32.2009 22.192C32.8195 21.36 33.6729 20.72 34.7609 20.272C35.8489 19.824 37.0969 19.6 38.5049 19.6C39.2089 19.6 39.9235 19.6533 40.6489 19.76C41.3742 19.8667 42.0035 20.0373 42.5369 20.272V19.376C42.5369 18.3093 42.2169 17.488 41.5769 16.912C40.9582 16.336 40.0302 16.048 38.7929 16.048C37.8755 16.048 37.0009 16.208 36.1689 16.528C35.3369 16.848 34.4622 17.3173 33.5449 17.936L32.1689 15.12C33.2782 14.3947 34.4089 13.8507 35.5609 13.488C36.7342 13.1253 37.9609 12.944 39.2409 12.944C41.6302 12.944 43.4862 13.5413 44.8089 14.736C46.1529 15.9307 46.8249 17.6373 46.8249 19.856V25.2C46.8249 25.648 46.8996 25.968 47.0489 26.16C47.2196 26.352 47.4862 26.4693 47.8489 26.512V30C47.4649 30.064 47.1129 30.1173 46.7929 30.16C46.4942 30.2027 46.2382 30.224 46.0249 30.224C45.1716 30.224 44.5209 30.032 44.0729 29.648C43.6462 29.264 43.3795 28.7947 43.2729 28.24L43.1769 27.376C42.4516 28.3147 41.5449 29.04 40.4569 29.552C39.3689 30.064 38.2596 30.32 37.1289 30.32C36.0195 30.32 35.0169 30.096 34.1209 29.648C33.2462 29.1787 32.5529 28.5493 32.0409 27.76C31.5502 26.9493 31.3049 26.0427 31.3049 25.04ZM41.7369 25.904C41.9715 25.648 42.1636 25.392 42.3129 25.136C42.4622 24.88 42.5369 24.6453 42.5369 24.432V22.736C42.0249 22.5227 41.4702 22.3627 40.8729 22.256C40.2755 22.128 39.7102 22.064 39.1769 22.064C38.0676 22.064 37.1502 22.3093 36.4249 22.8C35.7209 23.2693 35.3689 23.8987 35.3689 24.688C35.3689 25.1147 35.4862 25.52 35.7209 25.904C35.9555 26.288 36.2969 26.5973 36.7449 26.832C37.1929 27.0667 37.7262 27.184 38.3449 27.184C38.9849 27.184 39.6142 27.0667 40.2329 26.832C40.8515 26.576 41.3529 26.2667 41.7369 25.904ZM66.4159 30H62.1279V20.592C62.1279 19.248 61.8932 18.2667 61.4239 17.648C60.9545 17.0293 60.3039 16.72 59.4719 16.72C58.8959 16.72 58.3092 16.8693 57.7119 17.168C57.1359 17.4667 56.6132 17.8827 56.1439 18.416C55.6745 18.928 55.3332 19.5253 55.1199 20.208V30H50.8319V13.232H54.7039V16.336C55.1305 15.6107 55.6745 15.0027 56.3359 14.512C56.9972 14 57.7545 13.616 58.6079 13.36C59.4826 13.0827 60.3999 12.944 61.3599 12.944C62.4052 12.944 63.2586 13.136 63.9199 13.52C64.6026 13.8827 65.1146 14.384 65.4559 15.024C65.8186 15.6427 66.0639 16.3467 66.1919 17.136C66.3412 17.9253 66.4159 18.7253 66.4159 19.536V30ZM76.3204 30.32C74.891 30.32 73.5257 30.0853 72.2244 29.616C70.923 29.1467 69.803 28.4533 68.8644 27.536L70.4004 24.752C71.403 25.5627 72.3844 26.16 73.3444 26.544C74.3257 26.928 75.2644 27.12 76.1604 27.12C76.9924 27.12 77.6537 26.9707 78.1444 26.672C78.6564 26.3733 78.9124 25.9253 78.9124 25.328C78.9124 24.9227 78.7737 24.6133 78.4964 24.4C78.2191 24.1653 77.8137 23.9627 77.2804 23.792C76.7684 23.6213 76.1391 23.4293 75.3924 23.216C74.155 22.8107 73.1204 22.416 72.2884 22.032C71.4564 21.648 70.827 21.168 70.4004 20.592C69.995 19.9947 69.7924 19.2373 69.7924 18.32C69.7924 17.2107 70.0697 16.2613 70.6244 15.472C71.2004 14.6613 71.9897 14.032 72.9924 13.584C74.0164 13.136 75.2111 12.912 76.5764 12.912C77.7711 12.912 78.9017 13.104 79.9684 13.488C81.0351 13.8507 82.0057 14.448 82.8804 15.28L81.1524 18C80.2991 17.3387 79.4884 16.8587 78.7204 16.56C77.9524 16.24 77.1737 16.08 76.3844 16.08C75.9364 16.08 75.5097 16.1333 75.1044 16.24C74.7204 16.3467 74.4004 16.528 74.1444 16.784C73.9097 17.0187 73.7924 17.36 73.7924 17.808C73.7924 18.2133 73.899 18.5333 74.1124 18.768C74.347 18.9813 74.6884 19.1733 75.1364 19.344C75.6057 19.5147 76.171 19.7067 76.8324 19.92C78.1764 20.304 79.307 20.6987 80.2244 21.104C81.1631 21.5093 81.8671 22.0107 82.3364 22.608C82.8057 23.184 83.0404 23.984 83.0404 25.008C83.0404 26.672 82.4324 27.9733 81.2164 28.912C80.0004 29.8507 78.3684 30.32 76.3204 30.32ZM86.8871 30V17.392H84.6791V14.128H86.8871V13.104C86.8871 11.7173 87.1111 10.5227 87.5591 9.52C88.0285 8.496 88.6791 7.70667 89.5111 7.152C90.3645 6.59733 91.3565 6.32 92.4871 6.32C93.1698 6.32 93.8525 6.40533 94.5351 6.576C95.2391 6.74667 95.9325 6.992 96.6151 7.312L95.7511 10.544C95.4311 10.3733 95.0578 10.2347 94.6311 10.128C94.2045 10 93.7991 9.936 93.4151 9.936C92.6898 9.936 92.1351 10.192 91.7511 10.704C91.3671 11.216 91.1751 11.9627 91.1751 12.944V14.128H95.2711V17.392H91.1751V30H86.8871ZM105.264 30.32C103.92 30.32 102.704 30.096 101.616 29.648C100.528 29.1787 99.6001 28.5493 98.8321 27.76C98.0641 26.9493 97.4668 26.032 97.0401 25.008C96.6348 23.9627 96.4321 22.864 96.4321 21.712C96.4321 20.112 96.7841 18.6507 97.4881 17.328C98.2135 16.0053 99.2375 14.9493 100.56 14.16C101.904 13.3493 103.483 12.944 105.296 12.944C107.131 12.944 108.699 13.3493 110 14.16C111.301 14.9493 112.293 16.0053 112.976 17.328C113.68 18.6293 114.032 20.0373 114.032 21.552C114.032 21.808 114.021 22.0747 114 22.352C113.979 22.608 113.957 22.8213 113.936 22.992H100.976C101.061 23.8453 101.307 24.592 101.712 25.232C102.139 25.872 102.672 26.3627 103.312 26.704C103.973 27.024 104.677 27.184 105.424 27.184C106.277 27.184 107.077 26.9813 107.824 26.576C108.592 26.1493 109.115 25.5947 109.392 24.912L113.072 25.936C112.667 26.7893 112.08 27.5467 111.312 28.208C110.565 28.8693 109.68 29.392 108.656 29.776C107.632 30.1387 106.501 30.32 105.264 30.32ZM100.88 20.272H109.648C109.563 19.4187 109.317 18.6827 108.912 18.064C108.528 17.424 108.016 16.9333 107.376 16.592C106.736 16.2293 106.021 16.048 105.232 16.048C104.464 16.048 103.76 16.2293 103.12 16.592C102.501 16.9333 101.989 17.424 101.584 18.064C101.2 18.6827 100.965 19.4187 100.88 20.272ZM126.628 16.944C125.327 16.944 124.164 17.2 123.14 17.712C122.116 18.2027 121.38 18.9173 120.932 19.856V30H116.644V13.232H120.58V16.816C121.178 15.664 121.935 14.7573 122.852 14.096C123.77 13.4347 124.74 13.072 125.764 13.008C125.999 13.008 126.18 13.008 126.308 13.008C126.436 13.008 126.543 13.0187 126.628 13.04V16.944ZM136.577 30.32C135.233 30.32 134.017 30.096 132.929 29.648C131.841 29.1787 130.913 28.5493 130.145 27.76C129.377 26.9493 128.779 26.032 128.353 25.008C127.947 23.9627 127.745 22.864 127.745 21.712C127.745 20.112 128.097 18.6507 128.801 17.328C129.526 16.0053 130.55 14.9493 131.873 14.16C133.217 13.3493 134.795 12.944 136.609 12.944C138.443 12.944 140.011 13.3493 141.313 14.16C142.614 14.9493 143.606 16.0053 144.289 17.328C144.993 18.6293 145.345 20.0373 145.345 21.552C145.345 21.808 145.334 22.0747 145.313 22.352C145.291 22.608 145.27 22.8213 145.249 22.992H132.289C132.374 23.8453 132.619 24.592 133.025 25.232C133.451 25.872 133.985 26.3627 134.625 26.704C135.286 27.024 135.99 27.184 136.737 27.184C137.59 27.184 138.39 26.9813 139.137 26.576C139.905 26.1493 140.427 25.5947 140.705 24.912L144.385 25.936C143.979 26.7893 143.393 27.5467 142.625 28.208C141.878 28.8693 140.993 29.392 139.969 29.776C138.945 30.1387 137.814 30.32 136.577 30.32ZM132.193 20.272H140.961C140.875 19.4187 140.63 18.6827 140.225 18.064C139.841 17.424 139.329 16.9333 138.689 16.592C138.049 16.2293 137.334 16.048 136.545 16.048C135.777 16.048 135.073 16.2293 134.433 16.592C133.814 16.9333 133.302 17.424 132.897 18.064C132.513 18.6827 132.278 19.4187 132.193 20.272ZM148.185 30V7.28H158.233C159.279 7.28 160.239 7.49333 161.113 7.92C162.009 8.34667 162.777 8.92267 163.417 9.648C164.079 10.3733 164.58 11.184 164.921 12.08C165.284 12.976 165.465 13.8933 165.465 14.832C165.465 15.792 165.295 16.72 164.953 17.616C164.633 18.4907 164.164 19.2587 163.545 19.92C162.927 20.5813 162.201 21.0933 161.369 21.456L166.553 30H161.689L157.017 22.384H152.601V30H148.185ZM152.601 18.512H158.137C158.692 18.512 159.183 18.352 159.609 18.032C160.036 17.6907 160.377 17.2427 160.633 16.688C160.889 16.1333 161.017 15.5147 161.017 14.832C161.017 14.1067 160.868 13.4773 160.569 12.944C160.271 12.3893 159.887 11.952 159.417 11.632C158.969 11.312 158.479 11.152 157.945 11.152H152.601V18.512ZM169.467 30V7.28H179.515C180.56 7.28 181.52 7.49333 182.395 7.92C183.291 8.34667 184.059 8.92267 184.699 9.648C185.36 10.3733 185.861 11.184 186.203 12.08C186.565 12.976 186.747 13.8933 186.747 14.832C186.747 15.792 186.576 16.72 186.235 17.616C185.915 18.4907 185.445 19.2587 184.827 19.92C184.208 20.5813 183.483 21.0933 182.651 21.456L187.835 30H182.971L178.299 22.384H173.883V30H169.467ZM173.883 18.512H179.419C179.973 18.512 180.464 18.352 180.891 18.032C181.317 17.6907 181.659 17.2427 181.915 16.688C182.171 16.1333 182.299 15.5147 182.299 14.832C182.299 14.1067 182.149 13.4773 181.851 12.944C181.552 12.3893 181.168 11.952 180.699 11.632C180.251 11.312 179.76 11.152 179.227 11.152H173.883V18.512Z" fill="#0867B8"/>
</svg>
